<mxfile host="app.diagrams.net" agent="Mozilla/5.0 (Windows NT 10.0; Win64; x64) AppleWebKit/537.36 (KHTML, like Gecko) Chrome/131.0.0.0 Safari/537.36 Edg/131.0.0.0 Unique/97.7.6829.65" version="25.0.3">
  <diagram id="Ht1M8jgEwFfnCIfOTk4-" name="Page-1">
    <mxGraphModel dx="1895" dy="1055" grid="1" gridSize="10" guides="1" tooltips="1" connect="1" arrows="1" fold="1" page="1" pageScale="1" pageWidth="1169" pageHeight="827" math="0" shadow="0">
      <root>
        <mxCell id="0" />
        <mxCell id="1" parent="0" />
        <mxCell id="GNawCutZyjAiXXGBHKEk-13" value="" style="sketch=0;points=[[0,0,0],[0.25,0,0],[0.5,0,0],[0.75,0,0],[1,0,0],[0,1,0],[0.25,1,0],[0.5,1,0],[0.75,1,0],[1,1,0],[0,0.25,0],[0,0.5,0],[0,0.75,0],[1,0.25,0],[1,0.5,0],[1,0.75,0]];outlineConnect=0;fontColor=#232F3E;fillColor=#ED7100;strokeColor=#ffffff;dashed=0;verticalLabelPosition=bottom;verticalAlign=top;align=center;html=1;fontSize=12;fontStyle=0;aspect=fixed;shape=mxgraph.aws4.resourceIcon;resIcon=mxgraph.aws4.lambda;" vertex="1" parent="1">
          <mxGeometry x="720" y="320" width="78" height="78" as="geometry" />
        </mxCell>
        <mxCell id="GNawCutZyjAiXXGBHKEk-14" value="" style="sketch=0;points=[[0,0,0],[0.25,0,0],[0.5,0,0],[0.75,0,0],[1,0,0],[0,1,0],[0.25,1,0],[0.5,1,0],[0.75,1,0],[1,1,0],[0,0.25,0],[0,0.5,0],[0,0.75,0],[1,0.25,0],[1,0.5,0],[1,0.75,0]];outlineConnect=0;fontColor=#232F3E;fillColor=#8C4FFF;strokeColor=#ffffff;dashed=0;verticalLabelPosition=bottom;verticalAlign=top;align=center;html=1;fontSize=12;fontStyle=0;aspect=fixed;shape=mxgraph.aws4.resourceIcon;resIcon=mxgraph.aws4.api_gateway;" vertex="1" parent="1">
          <mxGeometry x="440" y="320" width="78" height="78" as="geometry" />
        </mxCell>
        <mxCell id="GNawCutZyjAiXXGBHKEk-15" value="" style="sketch=0;points=[[0,0,0],[0.25,0,0],[0.5,0,0],[0.75,0,0],[1,0,0],[0,1,0],[0.25,1,0],[0.5,1,0],[0.75,1,0],[1,1,0],[0,0.25,0],[0,0.5,0],[0,0.75,0],[1,0.25,0],[1,0.5,0],[1,0.75,0]];outlineConnect=0;fontColor=#232F3E;fillColor=#8C4FFF;strokeColor=#ffffff;dashed=0;verticalLabelPosition=bottom;verticalAlign=top;align=center;html=1;fontSize=12;fontStyle=0;aspect=fixed;shape=mxgraph.aws4.resourceIcon;resIcon=mxgraph.aws4.cloudfront;" vertex="1" parent="1">
          <mxGeometry x="160" y="320" width="78" height="78" as="geometry" />
        </mxCell>
        <mxCell id="GNawCutZyjAiXXGBHKEk-16" value="" style="sketch=0;points=[[0,0,0],[0.25,0,0],[0.5,0,0],[0.75,0,0],[1,0,0],[0,1,0],[0.25,1,0],[0.5,1,0],[0.75,1,0],[1,1,0],[0,0.25,0],[0,0.5,0],[0,0.75,0],[1,0.25,0],[1,0.5,0],[1,0.75,0]];outlineConnect=0;fontColor=#232F3E;fillColor=#8C4FFF;strokeColor=#ffffff;dashed=0;verticalLabelPosition=bottom;verticalAlign=top;align=center;html=1;fontSize=12;fontStyle=0;aspect=fixed;shape=mxgraph.aws4.resourceIcon;resIcon=mxgraph.aws4.route_53;" vertex="1" parent="1">
          <mxGeometry x="160" y="80" width="78" height="78" as="geometry" />
        </mxCell>
        <mxCell id="GNawCutZyjAiXXGBHKEk-17" value="" style="sketch=0;points=[[0,0,0],[0.25,0,0],[0.5,0,0],[0.75,0,0],[1,0,0],[0,1,0],[0.25,1,0],[0.5,1,0],[0.75,1,0],[1,1,0],[0,0.25,0],[0,0.5,0],[0,0.75,0],[1,0.25,0],[1,0.5,0],[1,0.75,0]];outlineConnect=0;fontColor=#232F3E;fillColor=#7AA116;strokeColor=#ffffff;dashed=0;verticalLabelPosition=bottom;verticalAlign=top;align=center;html=1;fontSize=12;fontStyle=0;aspect=fixed;shape=mxgraph.aws4.resourceIcon;resIcon=mxgraph.aws4.s3;" vertex="1" parent="1">
          <mxGeometry x="1000" y="320" width="78" height="78" as="geometry" />
        </mxCell>
        <mxCell id="GNawCutZyjAiXXGBHKEk-18" value="" style="edgeStyle=orthogonalEdgeStyle;html=1;endArrow=block;elbow=vertical;startArrow=block;startFill=1;endFill=1;strokeColor=#545B64;rounded=0;exitX=1;exitY=0.5;exitDx=0;exitDy=0;exitPerimeter=0;entryX=0;entryY=0.5;entryDx=0;entryDy=0;entryPerimeter=0;" edge="1" parent="1" source="GNawCutZyjAiXXGBHKEk-15" target="GNawCutZyjAiXXGBHKEk-14">
          <mxGeometry width="100" relative="1" as="geometry">
            <mxPoint x="270" y="358.58" as="sourcePoint" />
            <mxPoint x="370" y="358.58" as="targetPoint" />
          </mxGeometry>
        </mxCell>
        <mxCell id="GNawCutZyjAiXXGBHKEk-19" value="" style="edgeStyle=orthogonalEdgeStyle;html=1;endArrow=block;elbow=vertical;startArrow=block;startFill=1;endFill=1;strokeColor=#545B64;rounded=0;exitX=1;exitY=0.5;exitDx=0;exitDy=0;exitPerimeter=0;entryX=0;entryY=0.5;entryDx=0;entryDy=0;entryPerimeter=0;" edge="1" parent="1" source="GNawCutZyjAiXXGBHKEk-14" target="GNawCutZyjAiXXGBHKEk-13">
          <mxGeometry width="100" relative="1" as="geometry">
            <mxPoint x="540" y="358.58" as="sourcePoint" />
            <mxPoint x="640" y="358.58" as="targetPoint" />
          </mxGeometry>
        </mxCell>
        <mxCell id="GNawCutZyjAiXXGBHKEk-20" value="" style="edgeStyle=orthogonalEdgeStyle;html=1;endArrow=block;elbow=vertical;startArrow=block;startFill=1;endFill=1;strokeColor=#545B64;rounded=0;exitX=1;exitY=0.5;exitDx=0;exitDy=0;exitPerimeter=0;entryX=0;entryY=0.5;entryDx=0;entryDy=0;entryPerimeter=0;" edge="1" parent="1" source="GNawCutZyjAiXXGBHKEk-13" target="GNawCutZyjAiXXGBHKEk-17">
          <mxGeometry width="100" relative="1" as="geometry">
            <mxPoint x="850" y="450" as="sourcePoint" />
            <mxPoint x="950" y="450" as="targetPoint" />
          </mxGeometry>
        </mxCell>
        <mxCell id="GNawCutZyjAiXXGBHKEk-21" value="" style="sketch=0;outlineConnect=0;fontColor=#232F3E;gradientColor=none;fillColor=#232F3D;strokeColor=none;dashed=0;verticalLabelPosition=bottom;verticalAlign=top;align=center;html=1;fontSize=12;fontStyle=0;aspect=fixed;pointerEvents=1;shape=mxgraph.aws4.multimedia;" vertex="1" parent="1">
          <mxGeometry x="1000" y="470" width="78" height="73" as="geometry" />
        </mxCell>
        <mxCell id="GNawCutZyjAiXXGBHKEk-22" value="" style="strokeWidth=2;html=1;shape=mxgraph.flowchart.annotation_2;align=left;labelPosition=right;pointerEvents=1;rotation=90;" vertex="1" parent="1">
          <mxGeometry x="1014" y="380" width="50" height="100" as="geometry" />
        </mxCell>
        <mxCell id="GNawCutZyjAiXXGBHKEk-25" value="" style="endArrow=none;html=1;rounded=0;exitX=0.5;exitY=0;exitDx=0;exitDy=0;exitPerimeter=0;entryX=0.5;entryY=1;entryDx=0;entryDy=0;entryPerimeter=0;" edge="1" parent="1" source="GNawCutZyjAiXXGBHKEk-15" target="GNawCutZyjAiXXGBHKEk-16">
          <mxGeometry width="50" height="50" relative="1" as="geometry">
            <mxPoint x="360" y="240" as="sourcePoint" />
            <mxPoint x="410" y="190" as="targetPoint" />
          </mxGeometry>
        </mxCell>
        <mxCell id="GNawCutZyjAiXXGBHKEk-26" value="PÃºblicamente hospedado en AlexVisualArt.com" style="edgeLabel;html=1;align=center;verticalAlign=middle;resizable=0;points=[];" vertex="1" connectable="0" parent="GNawCutZyjAiXXGBHKEk-25">
          <mxGeometry x="0.0654" y="2" relative="1" as="geometry">
            <mxPoint as="offset" />
          </mxGeometry>
        </mxCell>
        <mxCell id="GNawCutZyjAiXXGBHKEk-27" value="" style="sketch=0;outlineConnect=0;fontColor=#232F3E;gradientColor=none;fillColor=#232F3D;strokeColor=none;dashed=0;verticalLabelPosition=bottom;verticalAlign=top;align=center;html=1;fontSize=12;fontStyle=0;aspect=fixed;pointerEvents=1;shape=mxgraph.aws4.user;" vertex="1" parent="1">
          <mxGeometry x="-78" y="80" width="78" height="78" as="geometry" />
        </mxCell>
        <mxCell id="GNawCutZyjAiXXGBHKEk-28" style="edgeStyle=orthogonalEdgeStyle;rounded=0;orthogonalLoop=1;jettySize=auto;html=1;entryX=0;entryY=0.5;entryDx=0;entryDy=0;entryPerimeter=0;" edge="1" parent="1" source="GNawCutZyjAiXXGBHKEk-27" target="GNawCutZyjAiXXGBHKEk-16">
          <mxGeometry relative="1" as="geometry" />
        </mxCell>
      </root>
    </mxGraphModel>
  </diagram>
</mxfile>
